<svg width="500" height="520" viewBox="0 0 500 520" fill="none" xmlns="http://www.w3.org/2000/svg">
<circle cx="250" cy="270" r="250" fill="black"/>
<path d="M377.53 103.778C382.266 103.778 385.67 103.852 387.742 104H395.512H403.06H412.162C413.346 104 414.53 104.222 415.714 104.666C417.194 105.11 418.526 105.332 419.71 105.332L421.708 105.11C423.188 105.554 423.928 106.368 423.928 107.552L439.468 177.926C443.464 197.906 447.016 216.184 450.124 232.76C450.864 233.352 451.53 235.276 452.122 238.532C452.27 240.308 452.344 243.046 452.344 246.746C452.344 248.67 452.048 250.224 451.456 251.408C450.716 252.74 449.68 253.406 448.348 253.406H445.24H440.134C439.098 253.11 437.248 252.962 434.584 252.962L424.594 252.74H422.818H413.272L411.94 252.518C411.792 252.37 411.644 252.296 411.496 252.296C411.348 252.296 411.274 252.296 411.274 252.296L411.052 251.852C410.904 251.852 410.756 251.926 410.608 252.074C410.312 252.222 410.016 252.296 409.72 252.296C408.832 252.592 408.24 252.74 407.944 252.74H407.278L405.28 252.518C403.652 252.37 400.47 252.296 395.734 252.296C394.254 252 392.552 251.852 390.628 251.852C389.888 250.52 389.148 248.226 388.408 244.97C387.52 241.714 386.632 238.088 385.744 234.092C385.448 231.872 384.708 227.21 383.524 220.106C383.08 217.886 382.562 215.074 381.97 211.67L380.638 204.566C380.638 204.418 380.564 204.122 380.416 203.678C380.268 203.382 380.194 202.938 380.194 202.346L379.528 197.906C379.232 196.722 378.936 194.872 378.64 192.356C378.344 191.616 378.122 190.654 377.974 189.47C377.826 188.434 377.678 187.546 377.53 186.806C377.382 186.066 377.234 185.326 377.086 184.586C376.938 183.994 376.864 183.328 376.864 182.588L376.42 180.59L376.198 179.702C376.198 179.258 376.05 178.888 375.754 178.592V177.26L375.31 178.592V179.702L375.088 180.59C375.088 181.034 374.94 181.7 374.644 182.588C374.644 183.624 374.422 185.03 373.978 186.806C373.682 187.694 373.46 188.582 373.312 189.47C373.164 190.506 373.016 191.468 372.868 192.356L371.98 197.906C371.684 198.794 371.462 199.682 371.314 200.57C371.166 201.458 371.092 202.05 371.092 202.346L370.87 204.566C366.578 226.914 363.544 241.122 361.768 247.19C361.62 248.078 361.398 248.892 361.102 249.632C360.658 250.52 359.992 251.186 359.104 251.63C358.956 251.926 358.512 252.148 357.772 252.296C356.884 252.444 356.218 252.592 355.774 252.74C352.666 253.184 350.446 253.406 349.114 253.406H345.34H338.902L331.132 253.184C329.8 253.036 328.246 252.962 326.47 252.962H325.804C325.656 253.11 325.582 253.184 325.582 253.184C325.434 253.332 325.36 253.406 325.36 253.406C324.768 253.406 324.398 253.258 324.25 252.962C323.954 252.962 323.806 252.888 323.806 252.74C323.658 252.74 323.584 252.74 323.584 252.74C320.92 252.592 317.812 252.518 314.26 252.518C312.78 252.37 311.226 252.296 309.598 252.296C308.266 252.296 307.526 252.148 307.378 251.852C307.23 251.852 307.008 251.926 306.712 252.074C306.416 252.222 306.12 252.296 305.824 252.296C305.528 252.592 304.788 252.74 303.604 252.74H302.272H299.608C297.24 252.74 295.834 252.444 295.39 251.852C294.206 247.412 293.244 241.862 292.504 235.202L291.838 230.318C290.654 221.882 289.396 214.778 288.064 209.006L287.62 206.342C287.176 203.234 286.954 201.31 286.954 200.57C286.806 199.09 286.436 196.722 285.844 193.466C285.548 190.062 285.178 187.694 284.734 186.362C284.734 184.734 284.586 182.884 284.29 180.812C284.142 180.072 283.994 179.48 283.846 179.036C283.698 178.74 283.624 178.518 283.624 178.37C283.624 177.63 283.55 176.964 283.402 176.372L283.18 175.04C282.884 175.78 282.662 176.224 282.514 176.372V178.37L282.292 180.812L281.404 186.362L280.294 193.466C280.146 195.39 279.776 197.758 279.184 200.57L278.518 206.342C278.37 207.082 278.296 207.674 278.296 208.118C278.148 208.562 278.074 208.858 278.074 209.006C277.186 213.15 276.594 216.258 276.298 218.33L275.41 222.992C273.338 233.944 271.636 241.492 270.304 245.636C269.86 248.152 269.12 250.224 268.084 251.852C267.196 251.852 266.234 251.926 265.198 252.074C264.162 252.222 263.126 252.296 262.09 252.296C260.906 252.296 259.574 252.444 258.094 252.74H257.65C257.206 252.74 256.984 252.592 256.984 252.296C256.984 252.296 256.984 252.222 256.984 252.074C256.984 251.926 256.91 251.852 256.762 251.852C256.17 251.852 255.726 251.926 255.43 252.074C255.134 252.222 254.912 252.296 254.764 252.296L254.542 252.74H242.554H241C239.372 252.74 237.966 252.814 236.782 252.962H231.232C228.42 252.962 226.496 253.11 225.46 253.406H220.354H217.024C215.84 253.406 214.952 252.74 214.36 251.408C213.62 250.076 213.25 248.522 213.25 246.746C213.99 244.822 214.656 242.084 215.248 238.532C215.396 236.904 215.47 234.98 215.47 232.76C220.354 209.82 225.312 189.322 230.344 171.266L245.884 107.552C247.216 107.256 247.956 106.812 248.104 106.22V105.11L250.324 105.332C251.508 105.332 252.396 105.258 252.988 105.11L255.652 104.888H266.752C272.524 104.888 276.816 104.962 279.628 105.11H292.282H303.16H309.598C311.078 105.258 313.15 105.332 315.814 105.332L318.034 105.11C319.514 105.554 320.254 106.368 320.254 107.552L335.128 180.812L349.78 107.552C350.52 105.184 352.888 104 356.884 104H367.318C369.242 103.852 372.646 103.778 377.53 103.778Z" fill="white"/>
<path d="M102.47 401.222C97.734 401.222 94.33 401.148 92.258 401H84.488H76.94H67.838C66.654 401 65.47 400.778 64.286 400.334C62.806 399.89 61.474 399.668 60.29 399.668L58.292 399.89C56.812 399.446 56.072 398.632 56.072 397.448L40.532 327.074C36.536 307.094 32.984 288.816 29.876 272.24C29.136 271.648 28.47 269.724 27.878 266.468C27.73 264.692 27.656 261.954 27.656 258.254C27.656 256.33 27.952 254.776 28.544 253.592C29.284 252.26 30.32 251.594 31.652 251.594H34.76H39.866C40.902 251.89 42.752 252.038 45.416 252.038L55.406 252.26H57.182H66.728L68.06 252.482C68.208 252.63 68.356 252.704 68.504 252.704C68.652 252.704 68.726 252.704 68.726 252.704L68.948 253.148C69.096 253.148 69.244 253.074 69.392 252.926C69.688 252.778 69.984 252.704 70.28 252.704C71.168 252.408 71.76 252.26 72.056 252.26H72.722L74.72 252.482C76.348 252.63 79.53 252.704 84.266 252.704C85.746 253 87.448 253.148 89.372 253.148C90.112 254.48 90.852 256.774 91.592 260.03C92.48 263.286 93.368 266.912 94.256 270.908C94.552 273.128 95.292 277.79 96.476 284.894C96.92 287.114 97.438 289.926 98.03 293.33L99.362 300.434C99.362 300.582 99.436 300.878 99.584 301.322C99.732 301.618 99.806 302.062 99.806 302.654L100.472 307.094C100.768 308.278 101.064 310.128 101.36 312.644C101.656 313.384 101.878 314.346 102.026 315.53C102.174 316.566 102.322 317.454 102.47 318.194C102.618 318.934 102.766 319.674 102.914 320.414C103.062 321.006 103.136 321.672 103.136 322.412L103.58 324.41L103.802 325.298C103.802 325.742 103.95 326.112 104.246 326.408V327.74L104.69 326.408V325.298L104.912 324.41C104.912 323.966 105.06 323.3 105.356 322.412C105.356 321.376 105.578 319.97 106.022 318.194C106.318 317.306 106.54 316.418 106.688 315.53C106.836 314.494 106.984 313.532 107.132 312.644L108.02 307.094C108.316 306.206 108.538 305.318 108.686 304.43C108.834 303.542 108.908 302.95 108.908 302.654L109.13 300.434C113.422 278.086 116.456 263.878 118.232 257.81C118.38 256.922 118.602 256.108 118.898 255.368C119.342 254.48 120.008 253.814 120.896 253.37C121.044 253.074 121.488 252.852 122.228 252.704C123.116 252.556 123.782 252.408 124.226 252.26C127.334 251.816 129.554 251.594 130.886 251.594H134.66H141.098L148.868 251.816C150.2 251.964 151.754 252.038 153.53 252.038H154.196C154.344 251.89 154.418 251.816 154.418 251.816C154.566 251.668 154.64 251.594 154.64 251.594C155.232 251.594 155.602 251.742 155.75 252.038C156.046 252.038 156.194 252.112 156.194 252.26C156.342 252.26 156.416 252.26 156.416 252.26C159.08 252.408 162.188 252.482 165.74 252.482C167.22 252.63 168.774 252.704 170.402 252.704C171.734 252.704 172.474 252.852 172.622 253.148C172.77 253.148 172.992 253.074 173.288 252.926C173.584 252.778 173.88 252.704 174.176 252.704C174.472 252.408 175.212 252.26 176.396 252.26H177.728H180.392C182.76 252.26 184.166 252.556 184.61 253.148C185.794 257.588 186.756 263.138 187.496 269.798L188.162 274.682C189.346 283.118 190.604 290.222 191.936 295.994L192.38 298.658C192.824 301.766 193.046 303.69 193.046 304.43C193.194 305.91 193.564 308.278 194.156 311.534C194.452 314.938 194.822 317.306 195.266 318.638C195.266 320.266 195.414 322.116 195.71 324.188C195.858 324.928 196.006 325.52 196.154 325.964C196.302 326.26 196.376 326.482 196.376 326.63C196.376 327.37 196.45 328.036 196.598 328.628L196.82 329.96C197.116 329.22 197.338 328.776 197.486 328.628V326.63L197.708 324.188L198.596 318.638L199.706 311.534C199.854 309.61 200.224 307.242 200.816 304.43L201.482 298.658C201.63 297.918 201.704 297.326 201.704 296.882C201.852 296.438 201.926 296.142 201.926 295.994C202.814 291.85 203.406 288.742 203.702 286.67L204.59 282.008C206.662 271.056 208.364 263.508 209.696 259.364C210.14 256.848 210.88 254.776 211.916 253.148C212.804 253.148 213.766 253.074 214.802 252.926C215.838 252.778 216.874 252.704 217.91 252.704C219.094 252.704 220.426 252.556 221.906 252.26H222.35C222.794 252.26 223.016 252.408 223.016 252.704C223.016 252.704 223.016 252.778 223.016 252.926C223.016 253.074 223.09 253.148 223.238 253.148C223.83 253.148 224.274 253.074 224.57 252.926C224.866 252.778 225.088 252.704 225.236 252.704L225.458 252.26H237.446H239C240.628 252.26 242.034 252.186 243.218 252.038H248.768C251.58 252.038 253.504 251.89 254.54 251.594H259.646H262.976C264.16 251.594 265.048 252.26 265.64 253.592C266.38 254.924 266.75 256.478 266.75 258.254C266.01 260.178 265.344 262.916 264.752 266.468C264.604 268.096 264.53 270.02 264.53 272.24C259.646 295.18 254.688 315.678 249.656 333.734L234.116 397.448C232.784 397.744 232.044 398.188 231.896 398.78V399.89L229.676 399.668C228.492 399.668 227.604 399.742 227.012 399.89L224.348 400.112H213.248C207.476 400.112 203.184 400.038 200.372 399.89H187.718H176.84H170.402C168.922 399.742 166.85 399.668 164.186 399.668L161.966 399.89C160.486 399.446 159.746 398.632 159.746 397.448L144.872 324.188L130.22 397.448C129.48 399.816 127.112 401 123.116 401H112.682C110.758 401.148 107.354 401.222 102.47 401.222Z" fill="white"/>
</svg>
